<!--?xml version="1.0" encoding="utf-8"?-->
<!-- Generator: Adobe Illustrator 15.0.0, SVG Export Plug-In . SVG Version: 6.00 Build 0)  -->

<svg xmlns="http://www.w3.org/2000/svg" xmlns:xlink="http://www.w3.org/1999/xlink" width="500px" height="500px" viewBox="0 0 500 500">
<path fill-rule="evenodd" clip-rule="evenodd" fill="#FFFFFF" d="M239.844,284.04c-10.522,26.569-49.943,16.75-60.68-2.96
	C192.081,253.589,223.933,270.956,239.844,284.04z" id="path-0" style="position: relative;"></path>
<path fill-rule="evenodd" clip-rule="evenodd" d="M307.925,315.12c-24.873,7.905-61.714,6.772-90.28,2.96
	C245.345,314.699,279.719,317.995,307.925,315.12z" id="path-1" style="position: relative;"></path>
<path fill-rule="evenodd" clip-rule="evenodd" d="M260.564,435c-0.987,0-1.973,0-2.96,0c-3.748-17.272-13.557-35.378-13.32-51.8
	c0.245-16.981,15.705-43.479-13.32-42.92c17.12-2.194,35.007,0.401,54.76-1.48c-9.256,2.498-17.118,9.116-17.76,19.24
	c-0.408,6.416,5.105,12.317,5.92,19.24C276.395,398.649,264.698,417.665,260.564,435z M266.484,341.76
	c-5.296,0.681-21.207-1.549-19.24,1.48C253.269,344.906,279.191,343.224,266.484,341.76z" id="path-2" style="position: relative;"></path>
<path fill-rule="evenodd" clip-rule="evenodd" fill="#FFFFFF" d="M247.245,343.24c-1.967-3.029,13.944-0.8,19.24-1.48
	C279.191,343.224,253.269,344.906,247.245,343.24z" id="path-3" style="position: relative;"></path>
<path fill-rule="evenodd" clip-rule="evenodd" d="M201.364,65c0.519,24.027-18.24,43.319-4.44,60.68
	c9.754,12.272,31.667,7.224,37,25.16c-15.442-11.11-53.093-29.672-74-11.84c25.728-4.708,59.937,2.93,72.52,20.72
	c-0.2,4.732,1.459,11.325-4.44,10.36c19.102,9.246,23.845,36.027,20.72,69.56c-1.579,16.936-11.235,39.661,8.88,41.44
	c11.778,1.042,22.255-20.244,32.56-4.44c-7.438,0.456-17.495-1.708-20.72,2.96c13.396,33.912,58.924,19.635,71.04-5.92
	c-15.715-1.552-29.695-4.839-31.08-20.72c8.96,16.654,44.545,23.68,62.16,10.36c1.873,3.419-8.745,6.99-13.32,8.88
	c-7.255,54.904-48.271,76.048-69.56,116.92c13.264-35.101,54.715-67.617,65.12-115.44c-13.643,2.51-14.914,23.227-28.12,32.561
	c-20.453,14.456-62.17,11.276-68.08-13.32c-8.202,6.473-9.444,15.38-17.76,19.24c-32.025,14.865-64.677-15.047-75.48-35.521
	c9.981,45.78,48.259,79.003,60.68,112.48c-20.393-39.301-57.549-61.838-65.12-113.96c-3.234-5.152-12.696-4.077-16.28-8.88
	c13.741,61.737,57.984,92.976,82.88,143.56c-39.826-51.396-90.795-85.833-94.72-170.2c-1.402-30.13-0.304-56.75-4.44-87.32
	c0-13.32,0-26.64,0-39.96c2.899-8.942,1.225-22.455,4.44-31.08c19.183-8.937,46.002-10.238,68.08-16.28
	C200.378,65,200.871,65,201.364,65z M152.524,195.24c-18.431,0.754-12.931,49.561-10.36,69.56c18.14,10.223,47.167,4.985,59.2-7.399
	c5.53-22.718,30.592-54.723,10.36-72.521c7.571-0.171,10.428,4.372,16.28,5.92c-6.456-30.701-37.547-44.133-72.52-41.44
	c-1.37,16.664,3.433,27.155,8.88,37c20.062,0.165,42.083-1.63,51.8,8.88C197.08,209.781,170.398,194.509,152.524,195.24z
	 M179.165,281.08c10.736,19.71,50.157,29.529,60.68,2.96C223.933,270.956,192.081,253.589,179.165,281.08z" id="path-4" style="position: relative;"></path>
<path fill-rule="evenodd" clip-rule="evenodd" d="M275.364,139c6.269-16.915,54.666-37.705,79.92-19.24
	c2.254,1.648,10.285,11.206,5.92,10.36C339.984,109.457,291.416,123.313,275.364,139z" id="path-5" style="position: relative;"></path>
<path fill-rule="evenodd" clip-rule="evenodd" d="M273.885,165.64c-3.351-19.865,26.774-30.824,48.84-32.56
	c21.241-1.671,39.931,6.983,48.84,19.24c-7.471-1.747-16.014-8.261-26.64-8.88C318.99,141.93,296.387,161.287,273.885,165.64z" id="path-6" style="position: relative;"></path>
<path fill-rule="evenodd" clip-rule="evenodd" d="M296.084,161.2c-0.54,2.642-19.374,12.035-17.76,26.64
	C269.46,174.973,288.291,166.98,296.084,161.2z" id="path-7" style="position: relative;"></path>
<path fill-rule="evenodd" clip-rule="evenodd" d="M364.164,187.84c7.9-2.519,8.136-1.129-1.479,4.44
	c2.029,3.397,6.095,4.759,8.88,7.4c-1.168,3.403-5.176-2.547-7.4-2.96c0.894,5.521,5.566,7.26,5.92,13.32
	c-9.155-29.987-53.567,4.024-76.96-14.8c8.385-10.856,30.035-8.446,48.841-8.88c2.638,3.282,6.468,5.373,13.319,4.44
	c6.117-2.763,10.557-7.203,13.32-13.32C371.767,174.915,366.466,186.333,364.164,187.84z" id="path-8" style="position: relative;"></path>
<path fill-rule="evenodd" clip-rule="evenodd" d="M216.165,201.16c-3.096,5.291-10.62,6.153-14.8,10.36
	C200.234,207.869,208.888,201.324,216.165,201.16z" id="path-9" style="position: relative;"></path>
<path fill-rule="evenodd" clip-rule="evenodd" fill="#FFFFFF" d="M216.165,195.24c-9.717-10.511-31.738-8.715-51.8-8.88
	c-5.447-9.845-10.25-20.336-8.88-37c34.973-2.693,66.064,10.739,72.52,41.44c-5.852-1.548-8.708-6.091-16.28-5.92
	c20.231,17.798-4.831,49.803-10.36,72.521c-12.032,12.385-41.06,17.622-59.2,7.399c-2.571-19.999-8.071-68.805,10.36-69.56
	C170.398,194.509,197.08,209.781,216.165,195.24z M201.364,211.52c4.181-4.207,11.704-5.069,14.8-10.36
	C208.888,201.324,200.234,207.869,201.364,211.52z" id="path-10" style="position: relative;"></path>
</svg>
